# xmcd
#
# Track frame offsets: 
#        150
#        15298
#        27064
#        41084
#        55419
#        70953
#        82572
#        100377
#        114971
#        131883
#        145883
#        158673
#        170441
#        184069
#        198154
#        209769
#        221168
#        236501
#        262619
#        278145
#        299931
#        314310
#        338582
#
# Disc length: 4773 seconds
#
# Revision: 2
# Processed by: cddbd v1.5.2PL0 Copyright (c) Steve Scherf et al.
# Submitted via: ExactAudioCopyFreeDBPlugin 1.0
#
DISCID=4d12a317
DTITLE=Various Artist - The Original Blues Album
DYEAR=2005
DGENRE=Blues
TTITLE0=Muddy Waters - Hoochie Coohie Man
TTITLE1=Lightnin' Hopkins - See See Rider
TTITLE2=John Lee Hooker - In The Mood
TTITLE3=Freddie King - Dust My Broom
TTITLE4=Sonny Terry and Brownie McGhee - Key To The Highway
TTITLE5=Amos Milburn - Trouble In Mind
TTITLE6=Memphis Slim - How Long Blues
TTITLE7=Floyd Dixon - Telephone Blues
TTITLE8=Dinah Washington - The Blues Ain't Nothin' But A Woman Cryin' 
TTITLE8=For Her Man
TTITLE9=Mississippi Fred McDowell - Baby Please Don't Go
TTITLE10=Son House - I want To Go Home On The Morning Train
TTITLE11=T-Bone Walker - Evil Hearted Woman
TTITLE12=Nina Simone - Gin House Blues
TTITLE13=Jimmy Rogers - That's All Right
TTITLE14=George 'Harmonica' Slim - My Babe
TTITLE15=Jeff Beck and Rod Stewart - You Shook Me
TTITLE16=Canned Heat - On The Road Again
TTITLE17=Dr. Feelgood - Shotgun Blues
TTITLE18=Albert Collins - Things That I Used To Do
TTITLE19=George Thorogood - Bad To The Bone
TTITLE20=Johnny Winter - Rollin' and Tumblin'
TTITLE21=Gary More and B.B. King - Since I Met You Baby
TTITLE22=Various Artist - DATA
EXTD=
EXTT0=
EXTT1=
EXTT2=
EXTT3=
EXTT4=
EXTT5=
EXTT6=
EXTT7=
EXTT8=
EXTT9=
EXTT10=
EXTT11=
EXTT12=
EXTT13=
EXTT14=
EXTT15=
EXTT16=
EXTT17=
EXTT18=
EXTT19=
EXTT20=
EXTT21=
EXTT22=
PLAYORDER=
